<svg width="259" height="82" viewBox="0 0 259 82" fill="none" xmlns="http://www.w3.org/2000/svg">
<rect width="259" height="82" rx="12" fill="#F8F8FF"/>
<path d="M80.4375 35.6562H76.3281L75.5469 38H73.0547L77.2891 26.625H79.4609L83.7188 38H81.2266L80.4375 35.6562ZM76.9609 33.7578H79.8047L78.375 29.5L76.9609 33.7578ZM86.3359 29.5469L86.4062 30.5234C87.0104 29.7682 87.8203 29.3906 88.8359 29.3906C89.7318 29.3906 90.3984 29.6536 90.8359 30.1797C91.2734 30.7057 91.4974 31.4922 91.5078 32.5391V38H89.25V32.5938C89.25 32.1146 89.1458 31.7682 88.9375 31.5547C88.7292 31.3359 88.3828 31.2266 87.8984 31.2266C87.263 31.2266 86.7865 31.4974 86.4688 32.0391V38H84.2109V29.5469H86.3359ZM95.3047 29.5469L95.375 30.5234C95.9792 29.7682 96.7891 29.3906 97.8047 29.3906C98.7005 29.3906 99.3672 29.6536 99.8047 30.1797C100.242 30.7057 100.466 31.4922 100.477 32.5391V38H98.2188V32.5938C98.2188 32.1146 98.1146 31.7682 97.9062 31.5547C97.6979 31.3359 97.3516 31.2266 96.8672 31.2266C96.2318 31.2266 95.7552 31.4974 95.4375 32.0391V38H93.1797V29.5469H95.3047ZM107.258 37.1406C106.701 37.8177 105.93 38.1562 104.945 38.1562C104.039 38.1562 103.346 37.8958 102.867 37.375C102.393 36.8542 102.151 36.0911 102.141 35.0859V29.5469H104.398V35.0078C104.398 35.888 104.799 36.3281 105.602 36.3281C106.367 36.3281 106.893 36.0625 107.18 35.5312V29.5469H109.445V38H107.32L107.258 37.1406ZM116.047 38C115.943 37.7969 115.867 37.5443 115.82 37.2422C115.273 37.8516 114.562 38.1562 113.688 38.1562C112.859 38.1562 112.172 37.9167 111.625 37.4375C111.083 36.9583 110.812 36.3542 110.812 35.625C110.812 34.7292 111.143 34.0417 111.805 33.5625C112.471 33.0833 113.432 32.8411 114.688 32.8359H115.727V32.3516C115.727 31.9609 115.625 31.6484 115.422 31.4141C115.224 31.1797 114.909 31.0625 114.477 31.0625C114.096 31.0625 113.797 31.1536 113.578 31.3359C113.365 31.5182 113.258 31.7682 113.258 32.0859H111C111 31.5964 111.151 31.1432 111.453 30.7266C111.755 30.3099 112.182 29.9844 112.734 29.75C113.286 29.5104 113.906 29.3906 114.594 29.3906C115.635 29.3906 116.461 29.6536 117.07 30.1797C117.685 30.7005 117.992 31.4349 117.992 32.3828V36.0469C117.997 36.849 118.109 37.4557 118.328 37.8672V38H116.047ZM114.18 36.4297C114.513 36.4297 114.82 36.3568 115.102 36.2109C115.383 36.0599 115.591 35.8594 115.727 35.6094V34.1562H114.883C113.753 34.1562 113.151 34.5469 113.078 35.3281L113.07 35.4609C113.07 35.7422 113.169 35.974 113.367 36.1562C113.565 36.3385 113.836 36.4297 114.18 36.4297ZM122.109 38H119.844V26H122.109V38ZM130.453 33.9922V38H128.109V26.625H132.547C133.401 26.625 134.151 26.7812 134.797 27.0938C135.448 27.4062 135.948 27.8516 136.297 28.4297C136.646 29.0026 136.82 29.6562 136.82 30.3906C136.82 31.5052 136.438 32.3854 135.672 33.0312C134.911 33.6719 133.857 33.9922 132.508 33.9922H130.453ZM130.453 32.0938H132.547C133.167 32.0938 133.638 31.9479 133.961 31.6562C134.289 31.3646 134.453 30.9479 134.453 30.4062C134.453 29.849 134.289 29.3984 133.961 29.0547C133.633 28.7109 133.18 28.5339 132.602 28.5234H130.453V32.0938ZM140.672 38H138.406V26H140.672V38ZM147.438 38C147.333 37.7969 147.258 37.5443 147.211 37.2422C146.664 37.8516 145.953 38.1562 145.078 38.1562C144.25 38.1562 143.562 37.9167 143.016 37.4375C142.474 36.9583 142.203 36.3542 142.203 35.625C142.203 34.7292 142.534 34.0417 143.195 33.5625C143.862 33.0833 144.823 32.8411 146.078 32.8359H147.117V32.3516C147.117 31.9609 147.016 31.6484 146.812 31.4141C146.615 31.1797 146.299 31.0625 145.867 31.0625C145.487 31.0625 145.188 31.1536 144.969 31.3359C144.755 31.5182 144.648 31.7682 144.648 32.0859H142.391C142.391 31.5964 142.542 31.1432 142.844 30.7266C143.146 30.3099 143.573 29.9844 144.125 29.75C144.677 29.5104 145.297 29.3906 145.984 29.3906C147.026 29.3906 147.852 29.6536 148.461 30.1797C149.076 30.7005 149.383 31.4349 149.383 32.3828V36.0469C149.388 36.849 149.5 37.4557 149.719 37.8672V38H147.438ZM145.57 36.4297C145.904 36.4297 146.211 36.3568 146.492 36.2109C146.773 36.0599 146.982 35.8594 147.117 35.6094V34.1562H146.273C145.143 34.1562 144.542 34.5469 144.469 35.3281L144.461 35.4609C144.461 35.7422 144.56 35.974 144.758 36.1562C144.956 36.3385 145.227 36.4297 145.57 36.4297ZM153.195 29.5469L153.266 30.5234C153.87 29.7682 154.68 29.3906 155.695 29.3906C156.591 29.3906 157.258 29.6536 157.695 30.1797C158.133 30.7057 158.357 31.4922 158.367 32.5391V38H156.109V32.5938C156.109 32.1146 156.005 31.7682 155.797 31.5547C155.589 31.3359 155.242 31.2266 154.758 31.2266C154.122 31.2266 153.646 31.4974 153.328 32.0391V38H151.07V29.5469H153.195Z" fill="#393939"/>
<path d="M78.4004 53.3818C78.4004 53.0081 78.2956 52.7119 78.0859 52.4932C77.8809 52.2699 77.5299 52.0648 77.0332 51.8779C76.5365 51.6911 76.1081 51.5065 75.748 51.3242C75.388 51.1374 75.0781 50.9255 74.8184 50.6885C74.5632 50.4469 74.3626 50.1644 74.2168 49.8408C74.0755 49.5173 74.0049 49.1322 74.0049 48.6855C74.0049 47.9154 74.251 47.2842 74.7432 46.792C75.2354 46.2998 75.8893 46.0127 76.7051 45.9307V44.4678H77.7988V45.9512C78.6055 46.0651 79.2367 46.4023 79.6924 46.9629C80.1481 47.5189 80.376 48.2412 80.376 49.1299H78.4004C78.4004 48.583 78.2865 48.1751 78.0586 47.9062C77.8353 47.6328 77.5345 47.4961 77.1562 47.4961C76.7826 47.4961 76.4932 47.6032 76.2881 47.8174C76.083 48.027 75.9805 48.3187 75.9805 48.6924C75.9805 49.0387 76.0807 49.3167 76.2812 49.5264C76.4818 49.736 76.8532 49.9502 77.3955 50.1689C77.9424 50.3877 78.3913 50.5951 78.7422 50.791C79.0931 50.9824 79.3893 51.2012 79.6309 51.4473C79.8724 51.6888 80.057 51.9668 80.1846 52.2812C80.3122 52.5911 80.376 52.9535 80.376 53.3682C80.376 54.1429 80.1344 54.7718 79.6514 55.2549C79.1683 55.738 78.5029 56.0228 77.6553 56.1094V57.4697H76.5684V56.1162C75.6341 56.016 74.9095 55.6855 74.3945 55.125C73.8841 54.5599 73.6289 53.8102 73.6289 52.876H75.6045C75.6045 53.4183 75.7321 53.8353 75.9873 54.127C76.2471 54.4141 76.6185 54.5576 77.1016 54.5576C77.5026 54.5576 77.8193 54.4528 78.0518 54.2432C78.2842 54.029 78.4004 53.7419 78.4004 53.3818ZM82.0098 51.1055L82.584 46.0469H88.1621V47.6943H84.2041L83.958 49.834C84.4274 49.5833 84.9264 49.458 85.4551 49.458C86.403 49.458 87.1458 49.752 87.6836 50.3398C88.2214 50.9277 88.4902 51.7503 88.4902 52.8076C88.4902 53.4502 88.3535 54.0267 88.0801 54.5371C87.8112 55.043 87.4238 55.4372 86.918 55.7197C86.4121 55.9977 85.8151 56.1367 85.127 56.1367C84.5254 56.1367 83.9671 56.016 83.4521 55.7744C82.9372 55.5283 82.5293 55.1842 82.2285 54.7422C81.9323 54.3001 81.7751 53.7965 81.7568 53.2314H83.7119C83.7529 53.6462 83.8965 53.9697 84.1426 54.2021C84.3932 54.43 84.7191 54.5439 85.1201 54.5439C85.5667 54.5439 85.9108 54.3844 86.1523 54.0654C86.3939 53.7419 86.5146 53.2861 86.5146 52.6982C86.5146 52.1331 86.3757 51.7002 86.0977 51.3994C85.8197 51.0986 85.4255 50.9482 84.915 50.9482C84.4456 50.9482 84.0651 51.0713 83.7734 51.3174L83.582 51.4951L82.0098 51.1055ZM94.376 52.0215C93.861 52.5273 93.2594 52.7803 92.5713 52.7803C91.6917 52.7803 90.9876 52.4795 90.459 51.8779C89.9303 51.2718 89.666 50.4561 89.666 49.4307C89.666 48.779 89.8073 48.182 90.0898 47.6396C90.377 47.0928 90.7757 46.6689 91.2861 46.3682C91.7965 46.0628 92.3708 45.9102 93.0088 45.9102C93.665 45.9102 94.2484 46.0742 94.7588 46.4023C95.2692 46.7305 95.6657 47.2021 95.9482 47.8174C96.2308 48.4326 96.3743 49.1367 96.3789 49.9297V50.6611C96.3789 52.32 95.9665 53.6234 95.1416 54.5713C94.3167 55.5192 93.1478 56.0251 91.6348 56.0889L91.1494 56.0957V54.4482L91.5869 54.4414C93.305 54.3639 94.2347 53.5573 94.376 52.0215ZM93.0566 51.2695C93.3757 51.2695 93.6491 51.1875 93.877 51.0234C94.1094 50.8594 94.2848 50.6611 94.4033 50.4287V49.6152C94.4033 48.9453 94.2757 48.4258 94.0205 48.0566C93.7653 47.6875 93.4235 47.5029 92.9951 47.5029C92.5986 47.5029 92.2728 47.6852 92.0176 48.0498C91.7624 48.4098 91.6348 48.8633 91.6348 49.4102C91.6348 49.9525 91.7578 50.3991 92.0039 50.75C92.2546 51.0964 92.6055 51.2695 93.0566 51.2695ZM97.9785 55.0293C97.9785 54.7148 98.0833 54.4596 98.293 54.2637C98.5072 54.0677 98.7738 53.9697 99.0928 53.9697C99.4163 53.9697 99.6829 54.0677 99.8926 54.2637C100.107 54.4596 100.214 54.7148 100.214 55.0293C100.214 55.3392 100.109 55.5921 99.8994 55.7881C99.6898 55.9795 99.4209 56.0752 99.0928 56.0752C98.7692 56.0752 98.5026 55.9795 98.293 55.7881C98.0833 55.5921 97.9785 55.3392 97.9785 55.0293ZM106.489 52.0215C105.974 52.5273 105.373 52.7803 104.685 52.7803C103.805 52.7803 103.101 52.4795 102.572 51.8779C102.044 51.2718 101.779 50.4561 101.779 49.4307C101.779 48.779 101.921 48.182 102.203 47.6396C102.49 47.0928 102.889 46.6689 103.399 46.3682C103.91 46.0628 104.484 45.9102 105.122 45.9102C105.778 45.9102 106.362 46.0742 106.872 46.4023C107.382 46.7305 107.779 47.2021 108.062 47.8174C108.344 48.4326 108.488 49.1367 108.492 49.9297V50.6611C108.492 52.32 108.08 53.6234 107.255 54.5713C106.43 55.5192 105.261 56.0251 103.748 56.0889L103.263 56.0957V54.4482L103.7 54.4414C105.418 54.3639 106.348 53.5573 106.489 52.0215ZM105.17 51.2695C105.489 51.2695 105.762 51.1875 105.99 51.0234C106.223 50.8594 106.398 50.6611 106.517 50.4287V49.6152C106.517 48.9453 106.389 48.4258 106.134 48.0566C105.879 47.6875 105.537 47.5029 105.108 47.5029C104.712 47.5029 104.386 47.6852 104.131 48.0498C103.876 48.4098 103.748 48.8633 103.748 49.4102C103.748 49.9525 103.871 50.3991 104.117 50.75C104.368 51.0964 104.719 51.2695 105.17 51.2695ZM114.528 52.0215C114.013 52.5273 113.412 52.7803 112.724 52.7803C111.844 52.7803 111.14 52.4795 110.611 51.8779C110.083 51.2718 109.818 50.4561 109.818 49.4307C109.818 48.779 109.96 48.182 110.242 47.6396C110.529 47.0928 110.928 46.6689 111.438 46.3682C111.949 46.0628 112.523 45.9102 113.161 45.9102C113.817 45.9102 114.401 46.0742 114.911 46.4023C115.422 46.7305 115.818 47.2021 116.101 47.8174C116.383 48.4326 116.527 49.1367 116.531 49.9297V50.6611C116.531 52.32 116.119 53.6234 115.294 54.5713C114.469 55.5192 113.3 56.0251 111.787 56.0889L111.302 56.0957V54.4482L111.739 54.4414C113.457 54.3639 114.387 53.5573 114.528 52.0215ZM113.209 51.2695C113.528 51.2695 113.801 51.1875 114.029 51.0234C114.262 50.8594 114.437 50.6611 114.556 50.4287V49.6152C114.556 48.9453 114.428 48.4258 114.173 48.0566C113.918 47.6875 113.576 47.5029 113.147 47.5029C112.751 47.5029 112.425 47.6852 112.17 48.0498C111.915 48.4098 111.787 48.8633 111.787 49.4102C111.787 49.9525 111.91 50.3991 112.156 50.75C112.407 51.0964 112.758 51.2695 113.209 51.2695ZM118.65 56.8545H117.181L120.845 46.0469H122.314L118.65 56.8545ZM126.026 53.2041L127.394 48.6035H129.513L126.539 57.1484L126.375 57.5381C125.933 58.5042 125.204 58.9873 124.188 58.9873C123.9 58.9873 123.609 58.944 123.312 58.8574V57.3604L123.613 57.3672C123.987 57.3672 124.265 57.3102 124.447 57.1963C124.634 57.0824 124.78 56.8932 124.885 56.6289L125.117 56.0205L122.526 48.6035H124.652L126.026 53.2041ZM133.601 56.1367C132.516 56.1367 131.632 55.804 130.948 55.1387C130.269 54.4733 129.93 53.5869 129.93 52.4795V52.2881C129.93 51.5452 130.073 50.8822 130.36 50.2988C130.647 49.7109 131.053 49.2598 131.577 48.9453C132.106 48.6263 132.707 48.4668 133.382 48.4668C134.394 48.4668 135.189 48.7858 135.768 49.4238C136.351 50.0618 136.643 50.9665 136.643 52.1377V52.9443H131.933C131.996 53.4274 132.188 53.8148 132.507 54.1064C132.83 54.3981 133.238 54.5439 133.73 54.5439C134.492 54.5439 135.086 54.2682 135.515 53.7168L136.485 54.8037C136.189 55.223 135.788 55.5511 135.282 55.7881C134.776 56.0205 134.216 56.1367 133.601 56.1367ZM133.375 50.0664C132.983 50.0664 132.664 50.1986 132.418 50.4629C132.176 50.7272 132.021 51.1055 131.953 51.5977H134.701V51.4404C134.692 51.0029 134.574 50.6657 134.346 50.4287C134.118 50.1872 133.794 50.0664 133.375 50.0664ZM142.057 56C141.965 55.8223 141.899 55.6012 141.858 55.3369C141.38 55.8701 140.758 56.1367 139.992 56.1367C139.268 56.1367 138.666 55.9271 138.188 55.5078C137.714 55.0885 137.477 54.5599 137.477 53.9219C137.477 53.138 137.766 52.5365 138.345 52.1172C138.928 51.6979 139.769 51.486 140.867 51.4814H141.776V51.0576C141.776 50.7158 141.688 50.4424 141.51 50.2373C141.337 50.0322 141.061 49.9297 140.683 49.9297C140.35 49.9297 140.088 50.0094 139.896 50.1689C139.71 50.3285 139.616 50.5472 139.616 50.8252H137.641C137.641 50.3968 137.773 50.0003 138.037 49.6357C138.301 49.2712 138.675 48.9863 139.158 48.7812C139.641 48.5716 140.184 48.4668 140.785 48.4668C141.697 48.4668 142.419 48.6969 142.952 49.1572C143.49 49.613 143.759 50.2555 143.759 51.085V54.291C143.763 54.9928 143.861 55.5238 144.053 55.8838V56H142.057ZM140.423 54.626C140.715 54.626 140.983 54.5622 141.229 54.4346C141.476 54.3024 141.658 54.127 141.776 53.9082V52.6367H141.038C140.049 52.6367 139.523 52.9785 139.459 53.6621L139.452 53.7783C139.452 54.0244 139.539 54.2272 139.712 54.3867C139.885 54.5462 140.122 54.626 140.423 54.626ZM149.433 50.4561C149.164 50.4196 148.927 50.4014 148.722 50.4014C147.974 50.4014 147.484 50.6543 147.252 51.1602V56H145.276V48.6035H147.143L147.197 49.4854C147.594 48.8063 148.143 48.4668 148.845 48.4668C149.063 48.4668 149.269 48.4964 149.46 48.5557L149.433 50.4561Z" fill="#B4B4B4"/>
<path d="M207.377 41.2227C207.291 42.1328 206.955 42.8438 206.369 43.3555C205.783 43.8633 205.004 44.1172 204.031 44.1172C203.352 44.1172 202.752 43.957 202.232 43.6367C201.717 43.3125 201.318 42.8535 201.037 42.2598C200.756 41.666 200.609 40.9766 200.598 40.1914V39.3945C200.598 38.5898 200.74 37.8809 201.025 37.2676C201.311 36.6543 201.719 36.1816 202.25 35.8496C202.785 35.5176 203.402 35.3516 204.102 35.3516C205.043 35.3516 205.801 35.6074 206.375 36.1191C206.949 36.6309 207.283 37.3535 207.377 38.2871H205.9C205.83 37.6738 205.65 37.2324 205.361 36.9629C205.076 36.6895 204.656 36.5527 204.102 36.5527C203.457 36.5527 202.961 36.7891 202.613 37.2617C202.27 37.7305 202.094 38.4199 202.086 39.3301V40.0859C202.086 41.0078 202.25 41.7109 202.578 42.1953C202.91 42.6797 203.395 42.9219 204.031 42.9219C204.613 42.9219 205.051 42.791 205.344 42.5293C205.637 42.2676 205.822 41.832 205.9 41.2227H207.377ZM209.973 38.3516C210.438 37.8125 211.025 37.543 211.736 37.543C213.088 37.543 213.773 38.3145 213.793 39.8574V44H212.369V39.9102C212.369 39.4727 212.273 39.1641 212.082 38.9844C211.895 38.8008 211.617 38.709 211.25 38.709C210.68 38.709 210.254 38.9629 209.973 39.4707V44H208.549V35H209.973V38.3516ZM219.025 44C218.963 43.8789 218.908 43.6816 218.861 43.4082C218.408 43.8809 217.854 44.1172 217.197 44.1172C216.561 44.1172 216.041 43.9355 215.639 43.5723C215.236 43.209 215.035 42.7598 215.035 42.2246C215.035 41.5488 215.285 41.0312 215.785 40.6719C216.289 40.3086 217.008 40.127 217.941 40.127H218.814V39.7109C218.814 39.3828 218.723 39.1211 218.539 38.9258C218.355 38.7266 218.076 38.627 217.701 38.627C217.377 38.627 217.111 38.709 216.904 38.873C216.697 39.0332 216.594 39.2383 216.594 39.4883H215.17C215.17 39.1406 215.285 38.8164 215.516 38.5156C215.746 38.2109 216.059 37.9727 216.453 37.8008C216.852 37.6289 217.295 37.543 217.783 37.543C218.525 37.543 219.117 37.7305 219.559 38.1055C220 38.4766 220.227 39 220.238 39.6758V42.5352C220.238 43.1055 220.318 43.5605 220.479 43.9004V44H219.025ZM217.461 42.9746C217.742 42.9746 218.006 42.9062 218.252 42.7695C218.502 42.6328 218.689 42.4492 218.814 42.2188V41.0234H218.047C217.52 41.0234 217.123 41.1152 216.857 41.2988C216.592 41.4824 216.459 41.7422 216.459 42.0781C216.459 42.3516 216.549 42.5703 216.729 42.7344C216.912 42.8945 217.156 42.9746 217.461 42.9746ZM223.051 37.6602L223.092 38.3926C223.561 37.8262 224.176 37.543 224.938 37.543C226.258 37.543 226.93 38.2988 226.953 39.8105V44H225.529V39.8926C225.529 39.4902 225.441 39.1934 225.266 39.002C225.094 38.8066 224.811 38.709 224.416 38.709C223.842 38.709 223.414 38.9688 223.133 39.4883V44H221.709V37.6602H223.051ZM228.16 40.7832C228.16 39.7988 228.391 39.0137 228.852 38.4277C229.316 37.8379 229.932 37.543 230.697 37.543C231.42 37.543 231.988 37.7949 232.402 38.2988L232.467 37.6602H233.75V43.8066C233.75 44.6387 233.49 45.2949 232.971 45.7754C232.455 46.2559 231.758 46.4961 230.879 46.4961C230.414 46.4961 229.959 46.3984 229.514 46.2031C229.072 46.0117 228.736 45.7598 228.506 45.4473L229.18 44.5918C229.617 45.1113 230.156 45.3711 230.797 45.3711C231.27 45.3711 231.643 45.2422 231.916 44.9844C232.189 44.7305 232.326 44.3555 232.326 43.8594V43.4316C231.916 43.8887 231.369 44.1172 230.686 44.1172C229.943 44.1172 229.336 43.8223 228.863 43.2324C228.395 42.6426 228.16 41.8262 228.16 40.7832ZM229.578 40.9062C229.578 41.543 229.707 42.0449 229.965 42.4121C230.227 42.7754 230.588 42.957 231.049 42.957C231.623 42.957 232.049 42.7109 232.326 42.2188V39.4297C232.057 38.9492 231.635 38.709 231.061 38.709C230.592 38.709 230.227 38.8945 229.965 39.2656C229.707 39.6367 229.578 40.1836 229.578 40.9062ZM238.01 44.1172C237.107 44.1172 236.375 43.834 235.812 43.2676C235.254 42.6973 234.975 41.9395 234.975 40.9941V40.8184C234.975 40.1855 235.096 39.6211 235.338 39.125C235.584 38.625 235.928 38.2363 236.369 37.959C236.811 37.6816 237.303 37.543 237.846 37.543C238.709 37.543 239.375 37.8184 239.844 38.3691C240.316 38.9199 240.553 39.6992 240.553 40.707V41.2812H236.41C236.453 41.8047 236.627 42.2188 236.932 42.5234C237.24 42.8281 237.627 42.9805 238.092 42.9805C238.744 42.9805 239.275 42.7168 239.686 42.1895L240.453 42.9219C240.199 43.3008 239.859 43.5957 239.434 43.8066C239.012 44.0137 238.537 44.1172 238.01 44.1172ZM237.84 38.6855C237.449 38.6855 237.133 38.8223 236.891 39.0957C236.652 39.3691 236.5 39.75 236.434 40.2383H239.146V40.1328C239.115 39.6562 238.988 39.2969 238.766 39.0547C238.543 38.8086 238.234 38.6855 237.84 38.6855Z" fill="#382AE1"/>
<line x1="200" y1="44.75" x2="241" y2="44.75" stroke="#382AE1" stroke-width="0.5"/>
<path d="M37.5 60C48.2696 60 57 51.2696 57 40.5C57 29.7304 48.2696 21 37.5 21C26.7304 21 18 29.7304 18 40.5C18 51.2696 26.7304 60 37.5 60Z" fill="#DFE6FB"/>
<path d="M44.4664 33.3484C44.3951 33.2865 44.3113 33.2407 44.2207 33.2141C44.1302 33.1874 44.0349 33.1806 43.9415 33.194L34.7221 34.5119C34.565 34.5342 34.4213 34.6125 34.3174 34.7324C34.2135 34.8523 34.1564 35.0057 34.1566 35.1643V42.8839C33.7541 42.6492 33.2964 42.5258 32.8306 42.5264C32.1298 42.5272 31.4581 42.806 30.9626 43.3015C30.4671 43.7969 30.1884 44.4687 30.1875 45.1694C30.1884 45.8702 30.4671 46.5419 30.9626 47.0374C31.4581 47.5329 32.1298 47.8116 32.8306 47.8125C33.5313 47.8116 34.2031 47.5329 34.6985 47.0374C35.194 46.5419 35.4728 45.8702 35.4736 45.1694V38.3688L43.376 37.2394V41.5676C42.9739 41.3328 42.5165 41.2091 42.0508 41.2093C41.35 41.21 40.678 41.4886 40.1823 41.9841C39.6866 42.4796 39.4078 43.1515 39.4069 43.8524C39.4078 44.5532 39.6866 45.2251 40.1823 45.7206C40.678 46.2161 41.35 46.4948 42.0508 46.4954C42.7515 46.4946 43.4233 46.2158 43.9188 45.7203C44.4143 45.2249 44.693 44.5531 44.6939 43.8524V33.8456C44.6939 33.7511 44.6736 33.6578 44.6344 33.5718C44.5951 33.4859 44.5378 33.4094 44.4664 33.3476V33.3484Z" fill="#717FA6"/>
</svg>
