<svg width="299" height="74" viewBox="0 0 299 74" fill="none" xmlns="http://www.w3.org/2000/svg">
<g filter="url(#filter0_d)">
<rect x="20" y="11" width="259" height="34" rx="12" fill="#382AE1"/>
</g>
<path d="M88.9395 29.4932V33H86.8887V23.0469H90.7715C91.5189 23.0469 92.1751 23.1836 92.7402 23.457C93.3099 23.7305 93.7474 24.1201 94.0527 24.626C94.3581 25.1273 94.5107 25.6992 94.5107 26.3418C94.5107 27.3171 94.1758 28.0872 93.5059 28.6523C92.8405 29.2129 91.9176 29.4932 90.7373 29.4932H88.9395ZM88.9395 27.832H90.7715C91.3138 27.832 91.7262 27.7044 92.0088 27.4492C92.2959 27.194 92.4395 26.8294 92.4395 26.3555C92.4395 25.8678 92.2959 25.4736 92.0088 25.1729C91.7217 24.8721 91.3252 24.7171 90.8193 24.708H88.9395V27.832ZM99.9521 27.4561C99.6833 27.4196 99.4463 27.4014 99.2412 27.4014C98.4938 27.4014 98.0039 27.6543 97.7715 28.1602V33H95.7959V25.6035H97.6621L97.7168 26.4854C98.1133 25.8063 98.6624 25.4668 99.3643 25.4668C99.583 25.4668 99.7881 25.4964 99.9795 25.5557L99.9521 27.4561ZM100.355 29.2334C100.355 28.4997 100.497 27.8457 100.779 27.2715C101.062 26.6973 101.467 26.2529 101.996 25.9385C102.529 25.624 103.147 25.4668 103.849 25.4668C104.847 25.4668 105.66 25.7721 106.289 26.3828C106.923 26.9935 107.276 27.8229 107.349 28.8711L107.362 29.377C107.362 30.5117 107.046 31.4232 106.412 32.1113C105.779 32.7949 104.929 33.1367 103.862 33.1367C102.796 33.1367 101.944 32.7949 101.306 32.1113C100.672 31.4277 100.355 30.498 100.355 29.3223V29.2334ZM102.331 29.377C102.331 30.0788 102.463 30.6165 102.728 30.9902C102.992 31.3594 103.37 31.5439 103.862 31.5439C104.341 31.5439 104.715 31.3617 104.983 30.9971C105.252 30.6279 105.387 30.04 105.387 29.2334C105.387 28.5452 105.252 28.012 104.983 27.6338C104.715 27.2555 104.336 27.0664 103.849 27.0664C103.366 27.0664 102.992 27.2555 102.728 27.6338C102.463 28.0075 102.331 28.5885 102.331 29.377ZM111.655 31.5439C112.02 31.5439 112.316 31.4437 112.544 31.2432C112.772 31.0426 112.89 30.776 112.899 30.4434H114.752C114.747 30.9447 114.611 31.4049 114.342 31.8242C114.073 32.2389 113.704 32.5625 113.234 32.7949C112.77 33.0228 112.255 33.1367 111.689 33.1367C110.632 33.1367 109.798 32.8018 109.188 32.1318C108.577 31.4574 108.271 30.5277 108.271 29.3428V29.2129C108.271 28.0736 108.575 27.1644 109.181 26.4854C109.787 25.8063 110.618 25.4668 111.676 25.4668C112.601 25.4668 113.341 25.7311 113.897 26.2598C114.458 26.7839 114.743 27.4834 114.752 28.3584H112.899C112.89 27.9756 112.772 27.6657 112.544 27.4287C112.316 27.1872 112.015 27.0664 111.642 27.0664C111.181 27.0664 110.833 27.235 110.596 27.5723C110.363 27.9049 110.247 28.4473 110.247 29.1992V29.4043C110.247 30.1654 110.363 30.7122 110.596 31.0449C110.828 31.3776 111.181 31.5439 111.655 31.5439ZM119.284 33.1367C118.2 33.1367 117.315 32.804 116.632 32.1387C115.953 31.4733 115.613 30.5869 115.613 29.4795V29.2881C115.613 28.5452 115.757 27.8822 116.044 27.2988C116.331 26.7109 116.737 26.2598 117.261 25.9453C117.789 25.6263 118.391 25.4668 119.065 25.4668C120.077 25.4668 120.872 25.7858 121.451 26.4238C122.035 27.0618 122.326 27.9665 122.326 29.1377V29.9443H117.616C117.68 30.4274 117.871 30.8148 118.19 31.1064C118.514 31.3981 118.922 31.5439 119.414 31.5439C120.175 31.5439 120.77 31.2682 121.198 30.7168L122.169 31.8037C121.873 32.223 121.472 32.5511 120.966 32.7881C120.46 33.0205 119.899 33.1367 119.284 33.1367ZM119.059 27.0664C118.667 27.0664 118.348 27.1986 118.102 27.4629C117.86 27.7272 117.705 28.1055 117.637 28.5977H120.385V28.4404C120.376 28.0029 120.257 27.6657 120.029 27.4287C119.801 27.1872 119.478 27.0664 119.059 27.0664ZM126.858 33.1367C125.774 33.1367 124.89 32.804 124.206 32.1387C123.527 31.4733 123.188 30.5869 123.188 29.4795V29.2881C123.188 28.5452 123.331 27.8822 123.618 27.2988C123.905 26.7109 124.311 26.2598 124.835 25.9453C125.364 25.6263 125.965 25.4668 126.64 25.4668C127.651 25.4668 128.447 25.7858 129.025 26.4238C129.609 27.0618 129.9 27.9665 129.9 29.1377V29.9443H125.19C125.254 30.4274 125.446 30.8148 125.765 31.1064C126.088 31.3981 126.496 31.5439 126.988 31.5439C127.749 31.5439 128.344 31.2682 128.772 30.7168L129.743 31.8037C129.447 32.223 129.046 32.5511 128.54 32.7881C128.034 33.0205 127.474 33.1367 126.858 33.1367ZM126.633 27.0664C126.241 27.0664 125.922 27.1986 125.676 27.4629C125.434 27.7272 125.279 28.1055 125.211 28.5977H127.959V28.4404C127.95 28.0029 127.831 27.6657 127.604 27.4287C127.376 27.1872 127.052 27.0664 126.633 27.0664ZM130.721 29.2471C130.721 28.0941 130.978 27.1758 131.493 26.4922C132.013 25.8086 132.721 25.4668 133.619 25.4668C134.339 25.4668 134.934 25.7357 135.403 26.2734V22.5H137.386V33H135.602L135.506 32.2139C135.014 32.8291 134.38 33.1367 133.605 33.1367C132.735 33.1367 132.035 32.7949 131.507 32.1113C130.983 31.4232 130.721 30.4684 130.721 29.2471ZM132.696 29.3906C132.696 30.0833 132.817 30.6143 133.059 30.9834C133.3 31.3525 133.651 31.5371 134.111 31.5371C134.722 31.5371 135.153 31.2796 135.403 30.7646V27.8457C135.157 27.3307 134.731 27.0732 134.125 27.0732C133.173 27.0732 132.696 27.8457 132.696 29.3906ZM144.769 23.7852V25.6035H146.033V27.0527H144.769V30.7441C144.769 31.0176 144.821 31.2135 144.926 31.332C145.031 31.4505 145.231 31.5098 145.527 31.5098C145.746 31.5098 145.94 31.4938 146.108 31.4619V32.959C145.721 33.0775 145.322 33.1367 144.912 33.1367C143.527 33.1367 142.82 32.4372 142.793 31.0381V27.0527H141.713V25.6035H142.793V23.7852H144.769ZM146.621 29.2334C146.621 28.4997 146.762 27.8457 147.045 27.2715C147.327 26.6973 147.733 26.2529 148.262 25.9385C148.795 25.624 149.412 25.4668 150.114 25.4668C151.112 25.4668 151.926 25.7721 152.555 26.3828C153.188 26.9935 153.541 27.8229 153.614 28.8711L153.628 29.377C153.628 30.5117 153.311 31.4232 152.678 32.1113C152.044 32.7949 151.194 33.1367 150.128 33.1367C149.062 33.1367 148.209 32.7949 147.571 32.1113C146.938 31.4277 146.621 30.498 146.621 29.3223V29.2334ZM148.597 29.377C148.597 30.0788 148.729 30.6165 148.993 30.9902C149.257 31.3594 149.636 31.5439 150.128 31.5439C150.606 31.5439 150.98 31.3617 151.249 30.9971C151.518 30.6279 151.652 30.04 151.652 29.2334C151.652 28.5452 151.518 28.012 151.249 27.6338C150.98 27.2555 150.602 27.0664 150.114 27.0664C149.631 27.0664 149.257 27.2555 148.993 27.6338C148.729 28.0075 148.597 28.5885 148.597 29.377ZM160.512 29.4932V33H158.461V23.0469H162.344C163.091 23.0469 163.747 23.1836 164.312 23.457C164.882 23.7305 165.32 24.1201 165.625 24.626C165.93 25.1273 166.083 25.6992 166.083 26.3418C166.083 27.3171 165.748 28.0872 165.078 28.6523C164.413 29.2129 163.49 29.4932 162.31 29.4932H160.512ZM160.512 27.832H162.344C162.886 27.832 163.299 27.7044 163.581 27.4492C163.868 27.194 164.012 26.8294 164.012 26.3555C164.012 25.8678 163.868 25.4736 163.581 25.1729C163.294 24.8721 162.897 24.7171 162.392 24.708H160.512V27.832ZM171.572 33C171.481 32.8223 171.415 32.6012 171.374 32.3369C170.896 32.8701 170.273 33.1367 169.508 33.1367C168.783 33.1367 168.182 32.9271 167.703 32.5078C167.229 32.0885 166.992 31.5599 166.992 30.9219C166.992 30.138 167.282 29.5365 167.86 29.1172C168.444 28.6979 169.285 28.486 170.383 28.4814H171.292V28.0576C171.292 27.7158 171.203 27.4424 171.025 27.2373C170.852 27.0322 170.576 26.9297 170.198 26.9297C169.866 26.9297 169.604 27.0094 169.412 27.1689C169.225 27.3285 169.132 27.5472 169.132 27.8252H167.156C167.156 27.3968 167.288 27.0003 167.553 26.6357C167.817 26.2712 168.191 25.9863 168.674 25.7812C169.157 25.5716 169.699 25.4668 170.301 25.4668C171.212 25.4668 171.935 25.6969 172.468 26.1572C173.006 26.613 173.274 27.2555 173.274 28.085V31.291C173.279 31.9928 173.377 32.5238 173.568 32.8838V33H171.572ZM169.938 31.626C170.23 31.626 170.499 31.5622 170.745 31.4346C170.991 31.3024 171.174 31.127 171.292 30.9082V29.6367H170.554C169.565 29.6367 169.038 29.9785 168.975 30.6621L168.968 30.7783C168.968 31.0244 169.054 31.2272 169.228 31.3867C169.401 31.5462 169.638 31.626 169.938 31.626ZM177.444 30.2041L178.812 25.6035H180.931L177.957 34.1484L177.793 34.5381C177.351 35.5042 176.622 35.9873 175.605 35.9873C175.318 35.9873 175.027 35.944 174.73 35.8574V34.3604L175.031 34.3672C175.405 34.3672 175.683 34.3102 175.865 34.1963C176.052 34.0824 176.198 33.8932 176.303 33.6289L176.535 33.0205L173.944 25.6035H176.07L177.444 30.2041ZM183.562 25.6035L183.624 26.4307C184.148 25.7881 184.857 25.4668 185.75 25.4668C186.702 25.4668 187.356 25.8428 187.712 26.5947C188.231 25.8428 188.972 25.4668 189.934 25.4668C190.736 25.4668 191.333 25.7015 191.725 26.1709C192.117 26.6357 192.312 27.3376 192.312 28.2764V33H190.33V28.2832C190.33 27.8639 190.248 27.5586 190.084 27.3672C189.92 27.1712 189.631 27.0732 189.216 27.0732C188.623 27.0732 188.213 27.3558 187.985 27.9209L187.992 33H186.017V28.29C186.017 27.8617 185.932 27.5518 185.764 27.3604C185.595 27.1689 185.308 27.0732 184.902 27.0732C184.342 27.0732 183.936 27.3057 183.686 27.7705V33H181.71V25.6035H183.562ZM197.241 33.1367C196.157 33.1367 195.272 32.804 194.589 32.1387C193.91 31.4733 193.57 30.5869 193.57 29.4795V29.2881C193.57 28.5452 193.714 27.8822 194.001 27.2988C194.288 26.7109 194.694 26.2598 195.218 25.9453C195.746 25.6263 196.348 25.4668 197.022 25.4668C198.034 25.4668 198.829 25.7858 199.408 26.4238C199.992 27.0618 200.283 27.9665 200.283 29.1377V29.9443H195.573C195.637 30.4274 195.828 30.8148 196.147 31.1064C196.471 31.3981 196.879 31.5439 197.371 31.5439C198.132 31.5439 198.727 31.2682 199.155 30.7168L200.126 31.8037C199.83 32.223 199.429 32.5511 198.923 32.7881C198.417 33.0205 197.856 33.1367 197.241 33.1367ZM197.016 27.0664C196.624 27.0664 196.305 27.1986 196.059 27.4629C195.817 27.7272 195.662 28.1055 195.594 28.5977H198.342V28.4404C198.333 28.0029 198.214 27.6657 197.986 27.4287C197.758 27.1872 197.435 27.0664 197.016 27.0664ZM203.229 25.6035L203.291 26.458C203.82 25.7972 204.528 25.4668 205.417 25.4668C206.201 25.4668 206.784 25.6969 207.167 26.1572C207.55 26.6175 207.746 27.3057 207.755 28.2217V33H205.779V28.2695C205.779 27.8503 205.688 27.5472 205.506 27.3604C205.324 27.1689 205.021 27.0732 204.597 27.0732C204.041 27.0732 203.624 27.3102 203.346 27.7842V33H201.37V25.6035H203.229ZM211.624 23.7852V25.6035H212.889V27.0527H211.624V30.7441C211.624 31.0176 211.676 31.2135 211.781 31.332C211.886 31.4505 212.087 31.5098 212.383 31.5098C212.602 31.5098 212.795 31.4938 212.964 31.4619V32.959C212.576 33.0775 212.178 33.1367 211.768 33.1367C210.382 33.1367 209.676 32.4372 209.648 31.0381V27.0527H208.568V25.6035H209.648V23.7852H211.624Z" fill="white"/>
<defs>
<filter id="filter0_d" x="0" y="0" width="299" height="74" filterUnits="userSpaceOnUse" color-interpolation-filters="sRGB">
<feFlood flood-opacity="0" result="BackgroundImageFix"/>
<feColorMatrix in="SourceAlpha" type="matrix" values="0 0 0 0 0 0 0 0 0 0 0 0 0 0 0 0 0 0 127 0" result="hardAlpha"/>
<feOffset dy="9"/>
<feGaussianBlur stdDeviation="10"/>
<feComposite in2="hardAlpha" operator="out"/>
<feColorMatrix type="matrix" values="0 0 0 0 0 0 0 0 0 0 0 0 0 0 0 0 0 0 0.15 0"/>
<feBlend mode="normal" in2="BackgroundImageFix" result="effect1_dropShadow"/>
<feBlend mode="normal" in="SourceGraphic" in2="effect1_dropShadow" result="shape"/>
</filter>
</defs>
</svg>
